<svg width="150" height="150" viewBox="0 0 150 150" fill="none" xmlns="http://www.w3.org/2000/svg">
<path d="M0 0H150V150H0V0Z" fill="#3E4142"/>
<path d="M72.6026 78.9009C71.4419 78.9009 70.4503 79.7367 70.2544 80.88L69.7498 83.8106C69.4846 83.912 69.22 84.017 68.9626 84.1323L66.5382 82.419C65.4737 81.683 64.2192 81.9524 63.4772 82.6814L59.866 86.2909C59.0451 87.1118 58.9361 88.4036 59.6053 89.3519L61.3169 91.778C61.2008 92.0354 61.0967 92.2983 60.9953 92.5635L58.0646 93.068C56.9204 93.2648 56.0855 94.2573 56.0855 95.4179V100.524C56.0855 101.685 56.9213 102.676 58.0646 102.872L60.9953 103.377C61.0967 103.642 61.2016 103.907 61.3169 104.164L59.6036 106.588C58.9344 107.536 59.0451 108.829 59.866 109.649L63.4755 113.261C64.4152 114.179 65.7286 114.106 66.5365 113.521L68.9626 111.81C69.22 111.926 69.4829 112.03 69.7481 112.131L70.2527 115.062C70.4494 116.206 71.4419 117.041 72.6026 117.041H77.7087C78.8694 117.041 79.861 116.205 80.0569 115.062L80.5614 112.131C80.8267 112.03 81.0912 111.925 81.3487 111.81L83.7731 113.523C84.4882 114.05 85.8554 114.24 86.8341 113.261L90.4453 109.651C91.2662 108.83 91.3752 107.538 90.706 106.59L88.9944 104.164C89.1105 103.907 89.2146 103.644 89.316 103.379L92.2466 102.874C93.3908 102.677 94.2258 101.685 94.2258 100.524V95.4179C94.2258 94.2573 93.39 93.2656 92.2466 93.0697L89.316 92.5652C89.2146 92.3 89.1096 92.0354 88.9944 91.778L90.7077 89.3536C91.3769 88.4061 91.2662 87.1135 90.4453 86.2926L86.8358 82.6814C85.9195 81.7868 84.6494 81.8061 83.7748 82.4207L81.3487 84.1323C81.0912 84.0161 80.8284 83.912 80.5631 83.8106L80.0586 80.88C79.8618 79.7358 78.8694 78.9009 77.7087 78.9009H72.6026ZM73.6082 82.3682H76.7048C76.7576 82.3682 76.8027 82.4059 76.8114 82.4579L77.4802 86.3468C79.0127 86.8972 80.4475 87.4774 81.7347 88.1058L84.9531 85.8321C84.9965 85.8017 85.0564 85.8067 85.0936 85.8439L87.2827 88.0347C87.32 88.072 87.3266 88.1302 87.2963 88.1735L85.0208 91.3936C85.6788 92.7849 86.2719 94.1998 86.7799 95.6465L90.6687 96.3169C90.7208 96.3256 90.7585 96.3707 90.7585 96.4236V99.5201C90.7585 99.573 90.7199 99.6181 90.6671 99.6268L86.7799 100.296C86.2728 101.742 85.6866 103.16 85.0208 104.55L87.2963 107.77C87.3266 107.814 87.32 107.872 87.2827 107.909L85.0936 110.1C85.0564 110.137 84.9965 110.142 84.9531 110.112L81.7347 107.838C80.3131 108.506 78.8948 109.092 77.4802 109.597L76.8097 113.484C76.8011 113.536 76.7559 113.574 76.7031 113.574H73.6065C73.5537 113.574 73.5085 113.535 73.4999 113.482L72.8311 109.595C71.4364 109.111 70.0198 108.533 68.5766 107.836L65.3565 110.112C65.3131 110.142 65.2549 110.135 65.2176 110.098L63.0269 107.909C62.9896 107.872 62.9847 107.812 63.015 107.768L65.2887 104.55C64.6135 103.107 64.0273 101.689 63.5297 100.296L59.6425 99.6251C59.5905 99.6164 59.5528 99.5713 59.5528 99.5184V96.4219C59.5528 96.369 59.5905 96.3248 59.6425 96.3152L63.5314 95.6448C64.035 94.2267 64.6126 92.8092 65.2904 91.392L63.015 88.1718C62.9847 88.1285 62.9913 88.0703 63.0286 88.033L65.2176 85.8422C65.2549 85.805 65.3148 85.8001 65.3582 85.8304L68.5766 88.1041C69.9184 87.4601 71.3411 86.8773 72.8311 86.3451L73.5016 82.4579C73.5102 82.4059 73.5553 82.3682 73.6082 82.3682ZM75.1556 90.1696C70.8467 90.1696 67.3542 93.662 67.3542 97.971C67.3542 102.28 70.8467 105.772 75.1556 105.772C79.4646 105.772 82.9571 102.28 82.9571 97.971C82.9571 93.662 79.4646 90.1696 75.1556 90.1696ZM75.1556 93.6369C77.5489 93.6369 79.4898 95.5777 79.4898 97.971C79.4898 100.364 77.5489 102.305 75.1556 102.305C72.7623 102.305 70.8215 100.364 70.8215 97.971C70.8215 95.5777 72.7623 93.6369 75.1556 93.6369Z" fill="white"/>
<path d="M86.9444 52.3889V38.3333C92.1389 38.3333 96.1111 34.3611 96.1111 29.1667C96.1111 23.9722 92.1389 20 86.9444 20H62.5C57.6111 20 53.3333 23.9722 53.3333 29.1667C53.3333 34.3611 57.6111 38.3333 62.5 38.3333V52.3889C46.6111 57.5833 35 72.5556 35 90.2778C35 112.278 52.7222 130 74.7222 130C96.7222 130 114.444 112.278 114.444 90.2778C114.444 72.5556 102.833 57.5833 86.9444 52.3889ZM59.4444 29.1667C59.4444 27.6389 60.9722 26.1111 62.5 26.1111H86.9444C88.4722 26.1111 90 27.6389 90 29.1667C90 30.6944 88.4722 32.2222 86.9444 32.2222H62.5C60.9722 32.2222 59.4444 30.6944 59.4444 29.1667ZM64.3333 58.1944L68.6111 56.9722V38.3333H80.8333V56.9722L85.1111 58.1944C91.5278 60.3333 96.7222 64 100.694 68.8889H48.75C52.7222 64 58.2222 60.3333 64.3333 58.1944ZM74.7222 123.889C56.0833 123.889 41.1111 108.917 41.1111 90.2778C41.1111 84.7778 42.3333 79.5833 44.7778 75H104.667C107.111 79.5833 108.333 84.7778 108.333 90.2778C108.333 108.917 93.3611 123.889 74.7222 123.889Z" fill="white"/>
</svg>
